<?xml version="1.0" encoding="UTF-8"?>
<svg width="14px" height="18px" viewBox="0 0 14 18" version="1.1" xmlns="http://www.w3.org/2000/svg" xmlns:xlink="http://www.w3.org/1999/xlink">
    <title>51B0229F-57B9-4C43-9563-1293852C8D54</title>
    <defs>
        <path d="M12,7.0052 L12,16.0002 L2,16.0002 L2,2.0002 L7.99,2.0002 L7.99,4.4892 C7.99,5.3182 8.661,5.9892 9.49,5.9892 L13.99,5.9892 L13.99,5.4682 C13.99,5.1712 13.858,4.8902 13.631,4.7002 L8.557,0.4642 C8.197,0.1642 7.744,0.0002 7.275,0.0002 L2,0.0002 C0.895,0.0002 0,0.8952 0,2.0002 L0,16.0002 C0,17.1042 0.895,18.0002 2,18.0002 L12,18.0002 C13.105,18.0002 14,17.1042 14,16.0002 L14,7.0052 L12,7.0052 Z M5.9906311,12 C6.50827165,12 6.93490293,12.3827202 6.99320924,12.8826674 L7,13 C7,13.5522847 6.55664682,14 5.9906311,14 L4.0093689,14 C3.45190985,14 3,13.5561352 3,13 C3,12.4477153 3.44335318,12 4.0093689,12 L5.9906311,12 Z M10.0029699,9 C10.5142826,9 10.9356987,9.38272018 10.9932922,9.88266744 L11,10 C11,10.5522847 10.5469637,11 10.0029699,11 L3.99703014,11 C3.4463856,11 3,10.5561352 3,10 C3,9.44771525 3.45303631,9 3.99703014,9 L10.0029699,9 Z" id="path-1"></path>
    </defs>
    <g id="Vendor" stroke="none" stroke-width="1" fill="none" fill-rule="evenodd">
        <g id="Vendor-Registration-/-Section-2-/-Add-New-&amp;-Edit---View" transform="translate(-991.000000, -575.000000)">
            <g id="Group-14" transform="translate(956.000000, 0.000000)">
                <g id="Group-13" transform="translate(25.000000, 24.000000)">
                    <g id="Group-12" transform="translate(0.000000, 62.000000)">
                        <g id="Group-10" transform="translate(0.000000, 441.000000)">
                            <g id="Group-9" transform="translate(0.000000, 32.000000)">
                                <g id="Group-8" transform="translate(5.000000, 12.000000)">
                                    <g id="standard/content/file" transform="translate(5.000000, 4.000000)">
                                        <mask id="mask-2" fill="white">
                                            <use xlink:href="#path-1"></use>
                                        </mask>
                                        <use id="Fill-1" fill="#42526E" xlink:href="#path-1"></use>
                                        <g id="↳-🎨Color" mask="url(#mask-2)" fill="#97A0AF">
                                            <g transform="translate(-5.000000, -3.000000)" id="N80">
                                                <polygon points="0 24 24 24 24 0 0 0"></polygon>
                                            </g>
                                        </g>
                                    </g>
                                </g>
                            </g>
                        </g>
                    </g>
                </g>
            </g>
        </g>
    </g>
</svg>